<svg width="800px" height="600px"><g><g class="background" transform="translate(55,15)"></g><g class="foreground" transform="translate(55,15)"><g class="dataGroup" transform="translate(0,0)"><text class="axisLabel" x="0" y="-2" style="fill: black;">Dimension 1</text><line class="rule top" x1="0" y1="0" x2="735" y2="0" style="stroke: black; shape-rendering: crispEdges;"></line><line class="rule bottom" x1="0" y1="277.5" x2="735" y2="277.5" style="stroke: black; shape-rendering: crispEdges;"></line><rect class="data" data-index="0" x="0" y="267.5" width="7.35" height="10" style="stroke: none; fill: rgb(0, 102, 153);"></rect><rect class="data" data-index="1" x="7.35" y="267.5" width="7.35" height="10" style="stroke: none; fill: rgb(0, 102, 153);"></rect><rect class="data" data-index="2" x="14.7" y="267.5" width="7.35" height="10" style="stroke: none; fill: rgb(0, 102, 153);"></rect><rect class="data" data-index="3" x="22.049999999999997" y="267.5" width="7.35" height="10" style="stroke: none; fill: rgb(0, 102, 153);"></rect><rect class="data" data-index="4" x="29.4" y="267.5" width="7.35" height="10" style="stroke: none; fill: rgb(0, 102, 153);"></rect><rect class="data" data-index="5" x="36.75" y="267.5" width="7.35" height="10" style="stroke: none; fill: rgb(0, 102, 153);"></rect><rect class="data" data-index="6" x="44.099999999999994" y="267.5" width="7.35" height="10" style="stroke: none; fill: rgb(0, 102, 153);"></rect><rect class="data" data-index="7" x="51.449999999999996" y="267.5" width="7.35" height="10" style="stroke: none; fill: rgb(0, 102, 153);"></rect><rect class="data" data-index="8" x="58.8" y="267.5" width="7.35" height="10" style="stroke: none; fill: rgb(0, 102, 153);"></rect><rect class="data" data-index="9" x="66.14999999999999" y="0" width="7.35" height="277.5" style="stroke: none; fill: rgb(0, 102, 153);"></rect><rect class="data" data-index="10" x="73.5" y="267.5" width="7.35" height="10" style="stroke: none; fill: rgb(0, 102, 153);"></rect><rect class="data" data-index="11" x="80.85" y="267.5" width="7.35" height="10" style="stroke: none; fill: rgb(0, 102, 153);"></rect><rect class="data" data-index="12" x="88.19999999999999" y="267.5" width="7.35" height="10" style="stroke: none; fill: rgb(0, 102, 153);"></rect><rect class="data" data-index="13" x="95.55" y="267.5" width="7.35" height="10" style="stroke: none; fill: rgb(0, 102, 153);"></rect><rect class="data" data-index="14" x="102.89999999999999" y="267.5" width="7.35" height="10" style="stroke: none; fill: rgb(0, 102, 153);"></rect><rect class="data" data-index="15" x="110.25" y="0" width="7.35" height="277.5" style="stroke: none; fill: rgb(0, 102, 153);"></rect><rect class="data" data-index="16" x="117.6" y="267.5" width="7.35" height="10" style="stroke: none; fill: rgb(0, 102, 153);"></rect><rect class="data" data-index="17" x="124.94999999999999" y="267.5" width="7.35" height="10" style="stroke: none; fill: rgb(0, 102, 153);"></rect><rect class="data" data-index="18" x="132.29999999999998" y="0" width="7.35" height="277.5" style="stroke: none; fill: rgb(0, 102, 153);"></rect><rect class="data" data-index="19" x="139.65" y="267.5" width="7.35" height="10" style="stroke: none; fill: rgb(0, 102, 153);"></rect><rect class="data" data-index="20" x="147" y="267.5" width="7.35" height="10" style="stroke: none; fill: rgb(0, 102, 153);"></rect><rect class="data" data-index="21" x="154.35" y="0" width="7.35" height="277.5" style="stroke: none; fill: rgb(0, 102, 153);"></rect><rect class="data" data-index="22" x="161.7" y="0" width="7.35" height="277.5" style="stroke: none; fill: rgb(0, 102, 153);"></rect><rect class="data" data-index="23" x="169.04999999999998" y="267.5" width="7.35" height="10" style="stroke: none; fill: rgb(0, 102, 153);"></rect><rect class="data" data-index="24" x="176.39999999999998" y="267.5" width="7.35" height="10" style="stroke: none; fill: rgb(0, 102, 153);"></rect><rect class="data" data-index="25" x="183.75" y="0" width="7.35" height="277.5" style="stroke: none; fill: rgb(0, 102, 153);"></rect><rect class="data" data-index="26" x="191.1" y="0" width="7.35" height="277.5" style="stroke: none; fill: rgb(0, 102, 153);"></rect><rect class="data" data-index="27" x="198.45" y="267.5" width="7.35" height="10" style="stroke: none; fill: rgb(0, 102, 153);"></rect><rect class="data" data-index="28" x="205.79999999999998" y="267.5" width="7.35" height="10" style="stroke: none; fill: rgb(0, 102, 153);"></rect><rect class="data" data-index="29" x="213.14999999999998" y="0" width="7.35" height="277.5" style="stroke: none; fill: rgb(0, 102, 153);"></rect><rect class="data" data-index="30" x="220.5" y="0" width="7.35" height="277.5" style="stroke: none; fill: rgb(0, 102, 153);"></rect><rect class="data" data-index="31" x="227.85" y="267.5" width="7.35" height="10" style="stroke: none; fill: rgb(0, 102, 153);"></rect><rect class="data" data-index="32" x="235.2" y="0" width="7.35" height="277.5" style="stroke: none; fill: rgb(0, 102, 153);"></rect><rect class="data" data-index="33" x="242.54999999999998" y="0" width="7.35" height="277.5" style="stroke: none; fill: rgb(0, 102, 153);"></rect><rect class="data" data-index="34" x="249.89999999999998" y="267.5" width="7.35" height="10" style="stroke: none; fill: rgb(0, 102, 153);"></rect><rect class="data" data-index="35" x="257.25" y="0" width="7.35" height="277.5" style="stroke: none; fill: rgb(0, 102, 153);"></rect><rect class="data" data-index="36" x="264.59999999999997" y="267.5" width="7.35" height="10" style="stroke: none; fill: rgb(0, 102, 153);"></rect><rect class="data" data-index="37" x="271.95" y="267.5" width="7.35" height="10" style="stroke: none; fill: rgb(0, 102, 153);"></rect><rect class="data" data-index="38" x="279.3" y="0" width="7.35" height="277.5" style="stroke: none; fill: rgb(0, 102, 153);"></rect><rect class="data" data-index="39" x="286.65" y="0" width="7.35" height="277.5" style="stroke: none; fill: rgb(0, 102, 153);"></rect><rect class="data" data-index="40" x="294" y="0" width="7.35" height="277.5" style="stroke: none; fill: rgb(0, 102, 153);"></rect><rect class="data" data-index="41" x="301.34999999999997" y="267.5" width="7.35" height="10" style="stroke: none; fill: rgb(0, 102, 153);"></rect><rect class="data" data-index="42" x="308.7" y="267.5" width="7.35" height="10" style="stroke: none; fill: rgb(0, 102, 153);"></rect><rect class="data" data-index="43" x="316.05" y="0" width="7.35" height="277.5" style="stroke: none; fill: rgb(0, 102, 153);"></rect><rect class="data" data-index="44" x="323.4" y="0" width="7.35" height="277.5" style="stroke: none; fill: rgb(0, 102, 153);"></rect><rect class="data" data-index="45" x="330.75" y="0" width="7.35" height="277.5" style="stroke: none; fill: rgb(0, 102, 153);"></rect><rect class="data" data-index="46" x="338.09999999999997" y="0" width="7.35" height="277.5" style="stroke: none; fill: rgb(0, 102, 153);"></rect><rect class="data" data-index="47" x="345.45" y="267.5" width="7.35" height="10" style="stroke: none; fill: rgb(0, 102, 153);"></rect><rect class="data" data-index="48" x="352.79999999999995" y="267.5" width="7.35" height="10" style="stroke: none; fill: rgb(0, 102, 153);"></rect><rect class="data" data-index="49" x="360.15" y="267.5" width="7.35" height="10" style="stroke: none; fill: rgb(0, 102, 153);"></rect><rect class="data" data-index="50" x="367.5" y="0" width="7.35" height="277.5" style="stroke: none; fill: rgb(0, 102, 153);"></rect><rect class="data" data-index="51" x="374.84999999999997" y="267.5" width="7.35" height="10" style="stroke: none; fill: rgb(0, 102, 153);"></rect><rect class="data" data-index="52" x="382.2" y="267.5" width="7.35" height="10" style="stroke: none; fill: rgb(0, 102, 153);"></rect><rect class="data" data-index="53" x="389.54999999999995" y="267.5" width="7.35" height="10" style="stroke: none; fill: rgb(0, 102, 153);"></rect><rect class="data" data-index="54" x="396.9" y="267.5" width="7.35" height="10" style="stroke: none; fill: rgb(0, 102, 153);"></rect><rect class="data" data-index="55" x="404.25" y="0" width="7.35" height="277.5" style="stroke: none; fill: rgb(0, 102, 153);"></rect><rect class="data" data-index="56" x="411.59999999999997" y="0" width="7.35" height="277.5" style="stroke: none; fill: rgb(0, 102, 153);"></rect><rect class="data" data-index="57" x="418.95" y="267.5" width="7.35" height="10" style="stroke: none; fill: rgb(0, 102, 153);"></rect><rect class="data" data-index="58" x="426.29999999999995" y="267.5" width="7.35" height="10" style="stroke: none; fill: rgb(0, 102, 153);"></rect><rect class="data" data-index="59" x="433.65" y="267.5" width="7.35" height="10" style="stroke: none; fill: rgb(0, 102, 153);"></rect><rect class="data" data-index="60" x="441" y="267.5" width="7.35" height="10" style="stroke: none; fill: rgb(0, 102, 153);"></rect><rect class="data" data-index="61" x="448.34999999999997" y="0" width="7.35" height="277.5" style="stroke: none; fill: rgb(0, 102, 153);"></rect><rect class="data" data-index="62" x="455.7" y="0" width="7.35" height="277.5" style="stroke: none; fill: rgb(0, 102, 153);"></rect><rect class="data" data-index="63" x="463.04999999999995" y="0" width="7.35" height="277.5" style="stroke: none; fill: rgb(0, 102, 153);"></rect><rect class="data" data-index="64" x="470.4" y="267.5" width="7.35" height="10" style="stroke: none; fill: rgb(0, 102, 153);"></rect><rect class="data" data-index="65" x="477.75" y="267.5" width="7.35" height="10" style="stroke: none; fill: rgb(0, 102, 153);"></rect><rect class="data" data-index="66" x="485.09999999999997" y="0" width="7.35" height="277.5" style="stroke: none; fill: rgb(0, 102, 153);"></rect><rect class="data" data-index="67" x="492.45" y="267.5" width="7.35" height="10" style="stroke: none; fill: rgb(0, 102, 153);"></rect><rect class="data" data-index="68" x="499.79999999999995" y="0" width="7.35" height="277.5" style="stroke: none; fill: rgb(0, 102, 153);"></rect><rect class="data" data-index="69" x="507.15" y="0" width="7.35" height="277.5" style="stroke: none; fill: rgb(0, 102, 153);"></rect><rect class="data" data-index="70" x="514.5" y="267.5" width="7.35" height="10" style="stroke: none; fill: rgb(0, 102, 153);"></rect><rect class="data" data-index="71" x="521.85" y="0" width="7.35" height="277.5" style="stroke: none; fill: rgb(0, 102, 153);"></rect><rect class="data" data-index="72" x="529.1999999999999" y="0" width="7.35" height="277.5" style="stroke: none; fill: rgb(0, 102, 153);"></rect><rect class="data" data-index="73" x="536.55" y="0" width="7.35" height="277.5" style="stroke: none; fill: rgb(0, 102, 153);"></rect><rect class="data" data-index="74" x="543.9" y="0" width="7.35" height="277.5" style="stroke: none; fill: rgb(0, 102, 153);"></rect><rect class="data" data-index="75" x="551.25" y="267.5" width="7.35" height="10" style="stroke: none; fill: rgb(0, 102, 153);"></rect><rect class="data" data-index="76" x="558.6" y="267.5" width="7.35" height="10" style="stroke: none; fill: rgb(0, 102, 153);"></rect><rect class="data" data-index="77" x="565.9499999999999" y="267.5" width="7.35" height="10" style="stroke: none; fill: rgb(0, 102, 153);"></rect><rect class="data" data-index="78" x="573.3" y="267.5" width="7.35" height="10" style="stroke: none; fill: rgb(0, 102, 153);"></rect><rect class="data" data-index="79" x="580.65" y="0" width="7.35" height="277.5" style="stroke: none; fill: rgb(0, 102, 153);"></rect><rect class="data" data-index="80" x="588" y="267.5" width="7.35" height="10" style="stroke: none; fill: rgb(0, 102, 153);"></rect><rect class="data" data-index="81" x="595.35" y="267.5" width="7.35" height="10" style="stroke: none; fill: rgb(0, 102, 153);"></rect><rect class="data" data-index="82" x="602.6999999999999" y="0" width="7.35" height="277.5" style="stroke: none; fill: rgb(0, 102, 153);"></rect><rect class="data" data-index="83" x="610.05" y="267.5" width="7.35" height="10" style="stroke: none; fill: rgb(0, 102, 153);"></rect><rect class="data" data-index="84" x="617.4" y="0" width="7.35" height="277.5" style="stroke: none; fill: rgb(0, 102, 153);"></rect><rect class="data" data-index="85" x="624.75" y="267.5" width="7.35" height="10" style="stroke: none; fill: rgb(0, 102, 153);"></rect><rect class="data" data-index="86" x="632.1" y="0" width="7.35" height="277.5" style="stroke: none; fill: rgb(0, 102, 153);"></rect><rect class="data" data-index="87" x="639.4499999999999" y="267.5" width="7.35" height="10" style="stroke: none; fill: rgb(0, 102, 153);"></rect><rect class="data" data-index="88" x="646.8" y="0" width="7.35" height="277.5" style="stroke: none; fill: rgb(0, 102, 153);"></rect><rect class="data" data-index="89" x="654.15" y="267.5" width="7.35" height="10" style="stroke: none; fill: rgb(0, 102, 153);"></rect><rect class="data" data-index="90" x="661.5" y="0" width="7.35" height="277.5" style="stroke: none; fill: rgb(0, 102, 153);"></rect><rect class="data" data-index="91" x="668.85" y="0" width="7.35" height="277.5" style="stroke: none; fill: rgb(0, 102, 153);"></rect><rect class="data" data-index="92" x="676.1999999999999" y="267.5" width="7.35" height="10" style="stroke: none; fill: rgb(0, 102, 153);"></rect><rect class="data" data-index="93" x="683.55" y="0" width="7.35" height="277.5" style="stroke: none; fill: rgb(0, 102, 153);"></rect><rect class="data" data-index="94" x="690.9" y="0" width="7.35" height="277.5" style="stroke: none; fill: rgb(0, 102, 153);"></rect><rect class="data" data-index="95" x="698.25" y="267.5" width="7.35" height="10" style="stroke: none; fill: rgb(0, 102, 153);"></rect><rect class="data" data-index="96" x="705.5999999999999" y="267.5" width="7.35" height="10" style="stroke: none; fill: rgb(0, 102, 153);"></rect><rect class="data" data-index="97" x="712.9499999999999" y="0" width="7.35" height="277.5" style="stroke: none; fill: rgb(0, 102, 153);"></rect><rect class="data" data-index="98" x="720.3" y="0" width="7.35" height="277.5" style="stroke: none; fill: rgb(0, 102, 153);"></rect><rect class="data" data-index="99" x="727.65" y="0" width="7.35" height="277.5" style="stroke: none; fill: rgb(0, 102, 153);"></rect><g class="y axis" fill="none" font-size="10" font-family="sans-serif" text-anchor="end"><path class="domain" stroke="currentColor" d="M-6,268H0.5V0.5H-6"></path><g class="tick" opacity="1" transform="translate(0,268)"><line stroke="currentColor" x2="-6"></line><text fill="currentColor" x="-9" dy="0.32em">A1</text></g><g class="tick" opacity="1" transform="translate(0,0.5)"><line stroke="currentColor" x2="-6"></line><text fill="currentColor" x="-9" dy="0.32em">A2</text></g></g></g><g class="dataGroup" transform="translate(0,297.5)"><text class="axisLabel" x="0" y="-2" style="fill: black;">Dimension 2</text><line class="rule top" x1="0" y1="0" x2="735" y2="0" style="stroke: black; shape-rendering: crispEdges;"></line><line class="rule bottom" x1="0" y1="277.5" x2="735" y2="277.5" style="stroke: black; shape-rendering: crispEdges;"></line><rect class="data" data-index="0" x="0" y="141.75443382712464" width="7.35" height="135.74556617287536" style="stroke: none; fill: rgb(0, 102, 153);"></rect><rect class="data" data-index="1" x="7.35" y="141.03335653990555" width="7.35" height="136.46664346009445" style="stroke: none; fill: rgb(0, 102, 153);"></rect><rect class="data" data-index="2" x="14.7" y="141.5558660352255" width="7.35" height="135.9441339647745" style="stroke: none; fill: rgb(0, 102, 153);"></rect><rect class="data" data-index="3" x="22.049999999999997" y="142.1813164707903" width="7.35" height="135.3186835292097" style="stroke: none; fill: rgb(0, 102, 153);"></rect><rect class="data" data-index="4" x="29.4" y="138.7941364265918" width="7.35" height="138.7058635734082" style="stroke: none; fill: rgb(0, 102, 153);"></rect><rect class="data" data-index="5" x="36.75" y="139.0247388232592" width="7.35" height="138.4752611767408" style="stroke: none; fill: rgb(0, 102, 153);"></rect><rect class="data" data-index="6" x="44.099999999999994" y="139.22314659471053" width="7.35" height="138.27685340528947" style="stroke: none; fill: rgb(0, 102, 153);"></rect><rect class="data" data-index="7" x="51.449999999999996" y="138.56657286251396" width="7.35" height="138.93342713748604" style="stroke: none; fill: rgb(0, 102, 153);"></rect><rect class="data" data-index="8" x="58.8" y="139.47838403385416" width="7.35" height="138.02161596614584" style="stroke: none; fill: rgb(0, 102, 153);"></rect><rect class="data" data-index="9" x="66.14999999999999" y="137.89932165712455" width="7.35" height="139.60067834287545" style="stroke: none; fill: rgb(0, 102, 153);"></rect><rect class="data" data-index="10" x="73.5" y="141.27873735799136" width="7.35" height="136.22126264200864" style="stroke: none; fill: rgb(0, 102, 153);"></rect><rect class="data" data-index="11" x="80.85" y="141.14603945959365" width="7.35" height="136.35396054040635" style="stroke: none; fill: rgb(0, 102, 153);"></rect><rect class="data" data-index="12" x="88.19999999999999" y="141.53554512234132" width="7.35" height="135.96445487765868" style="stroke: none; fill: rgb(0, 102, 153);"></rect><rect class="data" data-index="13" x="95.55" y="140.15050100938683" width="7.35" height="137.34949899061317" style="stroke: none; fill: rgb(0, 102, 153);"></rect><rect class="data" data-index="14" x="102.89999999999999" y="140.27144858889727" width="7.35" height="137.22855141110273" style="stroke: none; fill: rgb(0, 102, 153);"></rect><rect class="data" data-index="15" x="110.25" y="36.74536280212416" width="7.35" height="240.75463719787584" style="stroke: none; fill: rgb(0, 102, 153);"></rect><rect class="data" data-index="16" x="117.6" y="111.82707867354696" width="7.35" height="165.67292132645304" style="stroke: none; fill: rgb(0, 102, 153);"></rect><rect class="data" data-index="17" x="124.94999999999999" y="141.85388879352794" width="7.35" height="135.64611120647206" style="stroke: none; fill: rgb(0, 102, 153);"></rect><rect class="data" data-index="18" x="132.29999999999998" y="138.63012897130622" width="7.35" height="138.86987102869378" style="stroke: none; fill: rgb(0, 102, 153);"></rect><rect class="data" data-index="19" x="139.65" y="142.17096093934958" width="7.35" height="135.32903906065042" style="stroke: none; fill: rgb(0, 102, 153);"></rect><rect class="data" data-index="20" x="147" y="141.34998028904135" width="7.35" height="136.15001971095865" style="stroke: none; fill: rgb(0, 102, 153);"></rect><rect class="data" data-index="21" x="154.35" y="105.33033842195078" width="7.35" height="172.16966157804922" style="stroke: none; fill: rgb(0, 102, 153);"></rect><rect class="data" data-index="22" x="161.7" y="136.4717012266039" width="7.35" height="141.0282987733961" style="stroke: none; fill: rgb(0, 102, 153);"></rect><rect class="data" data-index="23" x="169.04999999999998" y="139.58090427939916" width="7.35" height="137.91909572060084" style="stroke: none; fill: rgb(0, 102, 153);"></rect><rect class="data" data-index="24" x="176.39999999999998" y="140.72268460698857" width="7.35" height="136.77731539301143" style="stroke: none; fill: rgb(0, 102, 153);"></rect><rect class="data" data-index="25" x="183.75" y="138.59365075565375" width="7.35" height="138.90634924434625" style="stroke: none; fill: rgb(0, 102, 153);"></rect><rect class="data" data-index="26" x="191.1" y="138.19325495064518" width="7.35" height="139.30674504935482" style="stroke: none; fill: rgb(0, 102, 153);"></rect><rect class="data" data-index="27" x="198.45" y="140.6653120961127" width="7.35" height="136.8346879038873" style="stroke: none; fill: rgb(0, 102, 153);"></rect><rect class="data" data-index="28" x="205.79999999999998" y="138.80080298835207" width="7.35" height="138.69919701164793" style="stroke: none; fill: rgb(0, 102, 153);"></rect><rect class="data" data-index="29" x="213.14999999999998" y="137.93884660193606" width="7.35" height="139.56115339806394" style="stroke: none; fill: rgb(0, 102, 153);"></rect><rect class="data" data-index="30" x="220.5" y="135.69751578579988" width="7.35" height="141.80248421420012" style="stroke: none; fill: rgb(0, 102, 153);"></rect><rect class="data" data-index="31" x="227.85" y="139.03862175971454" width="7.35" height="138.46137824028546" style="stroke: none; fill: rgb(0, 102, 153);"></rect><rect class="data" data-index="32" x="235.2" y="136.2992705174305" width="7.35" height="141.2007294825695" style="stroke: none; fill: rgb(0, 102, 153);"></rect><rect class="data" data-index="33" x="242.54999999999998" y="137.73628425826672" width="7.35" height="139.76371574173328" style="stroke: none; fill: rgb(0, 102, 153);"></rect><rect class="data" data-index="34" x="249.89999999999998" y="139.35414813622327" width="7.35" height="138.14585186377673" style="stroke: none; fill: rgb(0, 102, 153);"></rect><rect class="data" data-index="35" x="257.25" y="136.40454371622886" width="7.35" height="141.09545628377114" style="stroke: none; fill: rgb(0, 102, 153);"></rect><rect class="data" data-index="36" x="264.59999999999997" y="139.31701476742495" width="7.35" height="138.18298523257505" style="stroke: none; fill: rgb(0, 102, 153);"></rect><rect class="data" data-index="37" x="271.95" y="139.02393608965622" width="7.35" height="138.47606391034378" style="stroke: none; fill: rgb(0, 102, 153);"></rect><rect class="data" data-index="38" x="279.3" y="137.54274944511957" width="7.35" height="139.95725055488043" style="stroke: none; fill: rgb(0, 102, 153);"></rect><rect class="data" data-index="39" x="286.65" y="137.01777520147226" width="7.35" height="140.48222479852774" style="stroke: none; fill: rgb(0, 102, 153);"></rect><rect class="data" data-index="40" x="294" y="135.92901580689102" width="7.35" height="141.57098419310898" style="stroke: none; fill: rgb(0, 102, 153);"></rect><rect class="data" data-index="41" x="301.34999999999997" y="140.13829450775992" width="7.35" height="137.36170549224008" style="stroke: none; fill: rgb(0, 102, 153);"></rect><rect class="data" data-index="42" x="308.7" y="141.01119733450167" width="7.35" height="136.48880266549833" style="stroke: none; fill: rgb(0, 102, 153);"></rect><rect class="data" data-index="43" x="316.05" y="138.72839039127965" width="7.35" height="138.77160960872035" style="stroke: none; fill: rgb(0, 102, 153);"></rect><rect class="data" data-index="44" x="323.4" y="138.32178400890436" width="7.35" height="139.17821599109564" style="stroke: none; fill: rgb(0, 102, 153);"></rect><rect class="data" data-index="45" x="330.75" y="136.1308442433289" width="7.35" height="141.3691557566711" style="stroke: none; fill: rgb(0, 102, 153);"></rect><rect class="data" data-index="46" x="338.09999999999997" y="135.73623666423092" width="7.35" height="141.76376333576908" style="stroke: none; fill: rgb(0, 102, 153);"></rect><rect class="data" data-index="47" x="345.45" y="140.81060488304078" width="7.35" height="136.68939511695922" style="stroke: none; fill: rgb(0, 102, 153);"></rect><rect class="data" data-index="48" x="352.79999999999995" y="140.07526580091223" width="7.35" height="137.42473419908777" style="stroke: none; fill: rgb(0, 102, 153);"></rect><rect class="data" data-index="49" x="360.15" y="140.79625266428698" width="7.35" height="136.70374733571302" style="stroke: none; fill: rgb(0, 102, 153);"></rect><rect class="data" data-index="50" x="367.5" y="138.29082634793212" width="7.35" height="139.20917365206788" style="stroke: none; fill: rgb(0, 102, 153);"></rect><rect class="data" data-index="51" x="374.84999999999997" y="17.869861712615034" width="7.35" height="259.63013828738497" style="stroke: none; fill: rgb(0, 102, 153);"></rect><rect class="data" data-index="52" x="382.2" y="141.45510825205847" width="7.35" height="136.04489174794153" style="stroke: none; fill: rgb(0, 102, 153);"></rect><rect class="data" data-index="53" x="389.54999999999995" y="138.44972332303888" width="7.35" height="139.05027667696112" style="stroke: none; fill: rgb(0, 102, 153);"></rect><rect class="data" data-index="54" x="396.9" y="140.87286851155991" width="7.35" height="136.62713148844009" style="stroke: none; fill: rgb(0, 102, 153);"></rect><rect class="data" data-index="55" x="404.25" y="137.55448839002497" width="7.35" height="139.94551160997503" style="stroke: none; fill: rgb(0, 102, 153);"></rect><rect class="data" data-index="56" x="411.59999999999997" y="135.75643032047742" width="7.35" height="141.74356967952258" style="stroke: none; fill: rgb(0, 102, 153);"></rect><rect class="data" data-index="57" x="418.95" y="138.63905775566965" width="7.35" height="138.86094224433035" style="stroke: none; fill: rgb(0, 102, 153);"></rect><rect class="data" data-index="58" x="426.29999999999995" y="138.83934515263252" width="7.35" height="138.66065484736748" style="stroke: none; fill: rgb(0, 102, 153);"></rect><rect class="data" data-index="59" x="433.65" y="141.7781477175849" width="7.35" height="135.7218522824151" style="stroke: none; fill: rgb(0, 102, 153);"></rect><rect class="data" data-index="60" x="441" y="140.36692985388385" width="7.35" height="137.13307014611615" style="stroke: none; fill: rgb(0, 102, 153);"></rect><rect class="data" data-index="61" x="448.34999999999997" y="138.7714237847214" width="7.35" height="138.7285762152786" style="stroke: none; fill: rgb(0, 102, 153);"></rect><rect class="data" data-index="62" x="455.7" y="135.6053702893888" width="7.35" height="141.8946297106112" style="stroke: none; fill: rgb(0, 102, 153);"></rect><rect class="data" data-index="63" x="463.04999999999995" y="137.34126103602702" width="7.35" height="140.15873896397298" style="stroke: none; fill: rgb(0, 102, 153);"></rect><rect class="data" data-index="64" x="470.4" y="139.15538261942186" width="7.35" height="138.34461738057814" style="stroke: none; fill: rgb(0, 102, 153);"></rect><rect class="data" data-index="65" x="477.75" y="0" width="7.35" height="277.5" style="stroke: none; fill: rgb(0, 102, 153);"></rect><rect class="data" data-index="66" x="485.09999999999997" y="138.1222564350366" width="7.35" height="139.3777435649634" style="stroke: none; fill: rgb(0, 102, 153);"></rect><rect class="data" data-index="67" x="492.45" y="140.40827469638864" width="7.35" height="137.09172530361136" style="stroke: none; fill: rgb(0, 102, 153);"></rect><rect class="data" data-index="68" x="499.79999999999995" y="138.99906515363955" width="7.35" height="138.50093484636045" style="stroke: none; fill: rgb(0, 102, 153);"></rect><rect class="data" data-index="69" x="507.15" y="137.96013225573165" width="7.35" height="139.53986774426835" style="stroke: none; fill: rgb(0, 102, 153);"></rect><rect class="data" data-index="70" x="514.5" y="141.1315401758409" width="7.35" height="136.3684598241591" style="stroke: none; fill: rgb(0, 102, 153);"></rect><rect class="data" data-index="71" x="521.85" y="136.6723241266038" width="7.35" height="140.8276758733962" style="stroke: none; fill: rgb(0, 102, 153);"></rect><rect class="data" data-index="72" x="529.1999999999999" y="137.94428676055068" width="7.35" height="139.55571323944932" style="stroke: none; fill: rgb(0, 102, 153);"></rect><rect class="data" data-index="73" x="536.55" y="137.36246935430654" width="7.35" height="140.13753064569346" style="stroke: none; fill: rgb(0, 102, 153);"></rect><rect class="data" data-index="74" x="543.9" y="137.95942738413092" width="7.35" height="139.54057261586908" style="stroke: none; fill: rgb(0, 102, 153);"></rect><rect class="data" data-index="75" x="551.25" y="138.41712827172609" width="7.35" height="139.08287172827391" style="stroke: none; fill: rgb(0, 102, 153);"></rect><rect class="data" data-index="76" x="558.6" y="140.4877979006051" width="7.35" height="137.0122020993949" style="stroke: none; fill: rgb(0, 102, 153);"></rect><rect class="data" data-index="77" x="565.9499999999999" y="141.42642653835125" width="7.35" height="136.07357346164875" style="stroke: none; fill: rgb(0, 102, 153);"></rect><rect class="data" data-index="78" x="573.3" y="139.3516199588487" width="7.35" height="138.1483800411513" style="stroke: none; fill: rgb(0, 102, 153);"></rect><rect class="data" data-index="79" x="580.65" y="137.67364809526126" width="7.35" height="139.82635190473874" style="stroke: none; fill: rgb(0, 102, 153);"></rect><rect class="data" data-index="80" x="588" y="141.3545163253719" width="7.35" height="136.1454836746281" style="stroke: none; fill: rgb(0, 102, 153);"></rect><rect class="data" data-index="81" x="595.35" y="139.3755989007635" width="7.35" height="138.1244010992365" style="stroke: none; fill: rgb(0, 102, 153);"></rect><rect class="data" data-index="82" x="602.6999999999999" y="136.13024052693697" width="7.35" height="141.36975947306303" style="stroke: none; fill: rgb(0, 102, 153);"></rect><rect class="data" data-index="83" x="610.05" y="277.5" width="7.35" height="0" style="stroke: none; fill: rgb(0, 102, 153);"></rect><rect class="data" data-index="84" x="617.4" y="138.39130921144138" width="7.35" height="139.10869078855862" style="stroke: none; fill: rgb(0, 102, 153);"></rect><rect class="data" data-index="85" x="624.75" y="138.84367292269954" width="7.35" height="138.65632707730046" style="stroke: none; fill: rgb(0, 102, 153);"></rect><rect class="data" data-index="86" x="632.1" y="137.26350511652467" width="7.35" height="140.23649488347533" style="stroke: none; fill: rgb(0, 102, 153);"></rect><rect class="data" data-index="87" x="639.4499999999999" y="138.4316781886608" width="7.35" height="139.0683218113392" style="stroke: none; fill: rgb(0, 102, 153);"></rect><rect class="data" data-index="88" x="646.8" y="136.71440106514325" width="7.35" height="140.78559893485675" style="stroke: none; fill: rgb(0, 102, 153);"></rect><rect class="data" data-index="89" x="654.15" y="141.064144651104" width="7.35" height="136.435855348896" style="stroke: none; fill: rgb(0, 102, 153);"></rect><rect class="data" data-index="90" x="661.5" y="137.93314254288148" width="7.35" height="139.56685745711852" style="stroke: none; fill: rgb(0, 102, 153);"></rect><rect class="data" data-index="91" x="668.85" y="138.72262991158033" width="7.35" height="138.77737008841967" style="stroke: none; fill: rgb(0, 102, 153);"></rect><rect class="data" data-index="92" x="676.1999999999999" y="141.08563948675575" width="7.35" height="136.41436051324425" style="stroke: none; fill: rgb(0, 102, 153);"></rect><rect class="data" data-index="93" x="683.55" y="138.87260762702525" width="7.35" height="138.62739237297475" style="stroke: none; fill: rgb(0, 102, 153);"></rect><rect class="data" data-index="94" x="690.9" y="137.61765769220986" width="7.35" height="139.88234230779014" style="stroke: none; fill: rgb(0, 102, 153);"></rect><rect class="data" data-index="95" x="698.25" y="141.25832348500717" width="7.35" height="136.24167651499283" style="stroke: none; fill: rgb(0, 102, 153);"></rect><rect class="data" data-index="96" x="705.5999999999999" y="141.34705984536018" width="7.35" height="136.15294015463982" style="stroke: none; fill: rgb(0, 102, 153);"></rect><rect class="data" data-index="97" x="712.9499999999999" y="135.40573347646475" width="7.35" height="142.09426652353525" style="stroke: none; fill: rgb(0, 102, 153);"></rect><rect class="data" data-index="98" x="720.3" y="136.84269712231267" width="7.35" height="140.65730287768733" style="stroke: none; fill: rgb(0, 102, 153);"></rect><rect class="data" data-index="99" x="727.65" y="137.73007222423888" width="7.35" height="139.76992777576112" style="stroke: none; fill: rgb(0, 102, 153);"></rect><g class="y axis" fill="none" font-size="10" font-family="sans-serif" text-anchor="end"><path class="domain" stroke="currentColor" d="M-6,278H0.5V0.5H-6"></path><g class="tick" opacity="1" transform="translate(0,256.4648301977149)"><line stroke="currentColor" x2="-6"></line><text fill="currentColor" x="-9" dy="0.32em">-30</text></g><g class="tick" opacity="1" transform="translate(0,218.5442141521513)"><line stroke="currentColor" x2="-6"></line><text fill="currentColor" x="-9" dy="0.32em">-20</text></g><g class="tick" opacity="1" transform="translate(0,180.6235981065878)"><line stroke="currentColor" x2="-6"></line><text fill="currentColor" x="-9" dy="0.32em">-10</text></g><g class="tick" opacity="1" transform="translate(0,142.70298206102422)"><line stroke="currentColor" x2="-6"></line><text fill="currentColor" x="-9" dy="0.32em">0</text></g><g class="tick" opacity="1" transform="translate(0,104.78236601546064)"><line stroke="currentColor" x2="-6"></line><text fill="currentColor" x="-9" dy="0.32em">10</text></g><g class="tick" opacity="1" transform="translate(0,66.86174996989709)"><line stroke="currentColor" x2="-6"></line><text fill="currentColor" x="-9" dy="0.32em">20</text></g><g class="tick" opacity="1" transform="translate(0,28.941133924333514)"><line stroke="currentColor" x2="-6"></line><text fill="currentColor" x="-9" dy="0.32em">30</text></g></g></g></g><g class="highlightLayer" transform="translate(55,15)"></g><g class="selectionLayer" transform="translate(55,15)"></g><g class="overlay" transform="translate(55,15)"></g><g class="annotations" transform="translate(55,15)"></g></g></svg>