<svg width="800px" height="600px"><g><g class="background" transform="translate(50,25)"></g><g class="foreground" transform="translate(50,25)"><path class="data" data-index="0" d="M0,545L700,278.4005997685871" style="stroke: rgb(0, 102, 153); fill: none;"></path><path class="data" data-index="1" d="M0,545L700,276.98442996125596" style="stroke: rgb(0, 102, 153); fill: none;"></path><path class="data" data-index="2" d="M0,545L700,278.01061978089336" style="stroke: rgb(0, 102, 153); fill: none;"></path><path class="data" data-index="3" d="M0,545L700,279.23898189758813" style="stroke: rgb(0, 102, 153); fill: none;"></path><path class="data" data-index="4" d="M0,545L700,272.58668235132444" style="stroke: rgb(0, 102, 153); fill: none;"></path><path class="data" data-index="5" d="M0,545L700,273.03957714838293" style="stroke: rgb(0, 102, 153); fill: none;"></path><path class="data" data-index="6" d="M0,545L700,273.42924286168375" style="stroke: rgb(0, 102, 153); fill: none;"></path><path class="data" data-index="7" d="M0,545L700,272.13975571196437" style="stroke: rgb(0, 102, 153); fill: none;"></path><path class="data" data-index="8" d="M0,545L700,273.9305199944163" style="stroke: rgb(0, 102, 153); fill: none;"></path><path class="data" data-index="9" d="M0,0L700,270.82929838966805" style="stroke: rgb(0, 102, 153); fill: none;"></path><path class="data" data-index="10" d="M0,545L700,277.46634904542447" style="stroke: rgb(0, 102, 153); fill: none;"></path><path class="data" data-index="11" d="M0,545L700,277.20573515487763" style="stroke: rgb(0, 102, 153); fill: none;"></path><path class="data" data-index="12" d="M0,545L700,277.97071024027395" style="stroke: rgb(0, 102, 153); fill: none;"></path><path class="data" data-index="13" d="M0,545L700,275.25053351393086" style="stroke: rgb(0, 102, 153); fill: none;"></path><path class="data" data-index="14" d="M0,545L700,275.4880702016181" style="stroke: rgb(0, 102, 153); fill: none;"></path><path class="data" data-index="15" d="M0,0L700,72.16656838615381" style="stroke: rgb(0, 102, 153); fill: none;"></path><path class="data" data-index="16" d="M0,545L700,219.62435271020934" style="stroke: rgb(0, 102, 153); fill: none;"></path><path class="data" data-index="17" d="M0,545L700,278.5959257386405" style="stroke: rgb(0, 102, 153); fill: none;"></path><path class="data" data-index="18" d="M0,0L700,272.26457761932215" style="stroke: rgb(0, 102, 153); fill: none;"></path><path class="data" data-index="19" d="M0,545L700,279.21864400701094" style="stroke: rgb(0, 102, 153); fill: none;"></path><path class="data" data-index="20" d="M0,545L700,277.6062675946938" style="stroke: rgb(0, 102, 153); fill: none;"></path><path class="data" data-index="21" d="M0,0L700,206.8649889728403" style="stroke: rgb(0, 102, 153); fill: none;"></path><path class="data" data-index="22" d="M0,0L700,268.02550330990675" style="stroke: rgb(0, 102, 153); fill: none;"></path><path class="data" data-index="23" d="M0,545L700,274.1318660622434" style="stroke: rgb(0, 102, 153); fill: none;"></path><path class="data" data-index="24" d="M0,545L700,276.37428148039197" style="stroke: rgb(0, 102, 153); fill: none;"></path><path class="data" data-index="25" d="M0,0L700,272.19293571831093" style="stroke: rgb(0, 102, 153); fill: none;"></path><path class="data" data-index="26" d="M0,0L700,271.4065727859518" style="stroke: rgb(0, 102, 153); fill: none;"></path><path class="data" data-index="27" d="M0,545L700,276.26160393650963" style="stroke: rgb(0, 102, 153); fill: none;"></path><path class="data" data-index="28" d="M0,545L700,272.5997752383852" style="stroke: rgb(0, 102, 153); fill: none;"></path><path class="data" data-index="29" d="M0,0L700,270.90692395695555" style="stroke: rgb(0, 102, 153); fill: none;"></path><path class="data" data-index="30" d="M0,0L700,266.5050310027421" style="stroke: rgb(0, 102, 153); fill: none;"></path><path class="data" data-index="31" d="M0,545L700,273.0668427352952" style="stroke: rgb(0, 102, 153); fill: none;"></path><path class="data" data-index="32" d="M0,0L700,267.68685561080946" style="stroke: rgb(0, 102, 153); fill: none;"></path><path class="data" data-index="33" d="M0,0L700,270.50909881353283" style="stroke: rgb(0, 102, 153); fill: none;"></path><path class="data" data-index="34" d="M0,545L700,273.6865251684385" style="stroke: rgb(0, 102, 153); fill: none;"></path><path class="data" data-index="35" d="M0,0L700,267.8936083796207" style="stroke: rgb(0, 102, 153); fill: none;"></path><path class="data" data-index="36" d="M0,545L700,273.61359657025804" style="stroke: rgb(0, 102, 153); fill: none;"></path><path class="data" data-index="37" d="M0,545L700,273.03800060851404" style="stroke: rgb(0, 102, 153); fill: none;"></path><path class="data" data-index="38" d="M0,0L700,270.1290034147394" style="stroke: rgb(0, 102, 153); fill: none;"></path><path class="data" data-index="39" d="M0,0L700,269.09797291820684" style="stroke: rgb(0, 102, 153); fill: none;"></path><path class="data" data-index="40" d="M0,0L700,266.95968870182196" style="stroke: rgb(0, 102, 153); fill: none;"></path><path class="data" data-index="41" d="M0,545L700,275.22656038460957" style="stroke: rgb(0, 102, 153); fill: none;"></path><path class="data" data-index="42" d="M0,545L700,276.9409100803727" style="stroke: rgb(0, 102, 153); fill: none;"></path><path class="data" data-index="43" d="M0,0L700,272.45755950719786" style="stroke: rgb(0, 102, 153); fill: none;"></path><path class="data" data-index="44" d="M0,0L700,271.65899922469504" style="stroke: rgb(0, 102, 153); fill: none;"></path><path class="data" data-index="45" d="M0,0L700,267.3560724778892" style="stroke: rgb(0, 102, 153); fill: none;"></path><path class="data" data-index="46" d="M0,0L700,266.58107741263365" style="stroke: rgb(0, 102, 153); fill: none;"></path><path class="data" data-index="47" d="M0,545L700,276.5469537342603" style="stroke: rgb(0, 102, 153); fill: none;"></path><path class="data" data-index="48" d="M0,545L700,275.10277427566547" style="stroke: rgb(0, 102, 153); fill: none;"></path><path class="data" data-index="49" d="M0,545L700,276.5187664938249" style="stroke: rgb(0, 102, 153); fill: none;"></path><path class="data" data-index="50" d="M0,0L700,271.59819949413696" style="stroke: rgb(0, 102, 153); fill: none;"></path><path class="data" data-index="51" d="M0,545L700,35.09576444459526" style="stroke: rgb(0, 102, 153); fill: none;"></path><path class="data" data-index="52" d="M0,545L700,277.81273512566435" style="stroke: rgb(0, 102, 153); fill: none;"></path><path class="data" data-index="53" d="M0,545L700,271.9102674272295" style="stroke: rgb(0, 102, 153); fill: none;"></path><path class="data" data-index="54" d="M0,545L700,276.6692372569375" style="stroke: rgb(0, 102, 153); fill: none;"></path><path class="data" data-index="55" d="M0,0L700,270.15205827950854" style="stroke: rgb(0, 102, 153); fill: none;"></path><path class="data" data-index="56" d="M0,0L700,266.6207370258025" style="stroke: rgb(0, 102, 153); fill: none;"></path><path class="data" data-index="57" d="M0,545L700,272.2821134300539" style="stroke: rgb(0, 102, 153); fill: none;"></path><path class="data" data-index="58" d="M0,545L700,272.6754706601251" style="stroke: rgb(0, 102, 153); fill: none;"></path><path class="data" data-index="59" d="M0,545L700,278.44717299489645" style="stroke: rgb(0, 102, 153); fill: none;"></path><path class="data" data-index="60" d="M0,545L700,275.6755919652854" style="stroke: rgb(0, 102, 153); fill: none;"></path><path class="data" data-index="61" d="M0,0L700,272.54207554116454" style="stroke: rgb(0, 102, 153); fill: none;"></path><path class="data" data-index="62" d="M0,0L700,266.3240605683491" style="stroke: rgb(0, 102, 153); fill: none;"></path><path class="data" data-index="63" d="M0,0L700,269.73328744012514" style="stroke: rgb(0, 102, 153); fill: none;"></path><path class="data" data-index="64" d="M0,545L700,273.2961568561619" style="stroke: rgb(0, 102, 153); fill: none;"></path><path class="data" data-index="65" d="M0,545L700,0" style="stroke: rgb(0, 102, 153); fill: none;"></path><path class="data" data-index="66" d="M0,0L700,271.2671342598016" style="stroke: rgb(0, 102, 153); fill: none;"></path><path class="data" data-index="67" d="M0,545L700,275.75679174606057" style="stroke: rgb(0, 102, 153); fill: none;"></path><path class="data" data-index="68" d="M0,0L700,272.98915498642725" style="stroke: rgb(0, 102, 153); fill: none;"></path><path class="data" data-index="69" d="M0,0L700,270.9487282139595" style="stroke: rgb(0, 102, 153); fill: none;"></path><path class="data" data-index="70" d="M0,545L700,277.1772590840839" style="stroke: rgb(0, 102, 153); fill: none;"></path><path class="data" data-index="71" d="M0,0L700,268.4195194558525" style="stroke: rgb(0, 102, 153); fill: none;"></path><path class="data" data-index="72" d="M0,0L700,270.9176082324329" style="stroke: rgb(0, 102, 153); fill: none;"></path><path class="data" data-index="73" d="M0,0L700,269.7749398129624" style="stroke: rgb(0, 102, 153); fill: none;"></path><path class="data" data-index="74" d="M0,0L700,270.9473438715364" style="stroke: rgb(0, 102, 153); fill: none;"></path><path class="data" data-index="75" d="M0,545L700,271.8462519210476" style="stroke: rgb(0, 102, 153); fill: none;"></path><path class="data" data-index="76" d="M0,545L700,275.91297245344066" style="stroke: rgb(0, 102, 153); fill: none;"></path><path class="data" data-index="77" d="M0,545L700,277.7564052735187" style="stroke: rgb(0, 102, 153); fill: none;"></path><path class="data" data-index="78" d="M0,545L700,273.6815599191803" style="stroke: rgb(0, 102, 153); fill: none;"></path><path class="data" data-index="79" d="M0,0L700,270.38608364654914" style="stroke: rgb(0, 102, 153); fill: none;"></path><path class="data" data-index="80" d="M0,545L700,277.6151762065862" style="stroke: rgb(0, 102, 153); fill: none;"></path><path class="data" data-index="81" d="M0,545L700,273.72865369699497" style="stroke: rgb(0, 102, 153); fill: none;"></path><path class="data" data-index="82" d="M0,0L700,267.35488680065095" style="stroke: rgb(0, 102, 153); fill: none;"></path><path class="data" data-index="83" d="M0,545L700,545" style="stroke: rgb(0, 102, 153); fill: none;"></path><path class="data" data-index="84" d="M0,0L700,271.79554421706507" style="stroke: rgb(0, 102, 153); fill: none;"></path><path class="data" data-index="85" d="M0,545L700,272.68397024458113" style="stroke: rgb(0, 102, 153); fill: none;"></path><path class="data" data-index="86" d="M0,0L700,269.58057761623763" style="stroke: rgb(0, 102, 153); fill: none;"></path><path class="data" data-index="87" d="M0,545L700,271.8748274335861" style="stroke: rgb(0, 102, 153); fill: none;"></path><path class="data" data-index="88" d="M0,0L700,268.5021570468579" style="stroke: rgb(0, 102, 153); fill: none;"></path><path class="data" data-index="89" d="M0,545L700,277.0448967021682" style="stroke: rgb(0, 102, 153); fill: none;"></path><path class="data" data-index="90" d="M0,0L700,270.895721390524" style="stroke: rgb(0, 102, 153); fill: none;"></path><path class="data" data-index="91" d="M0,0L700,272.44624613265324" style="stroke: rgb(0, 102, 153); fill: none;"></path><path class="data" data-index="92" d="M0,545L700,277.0871117847996" style="stroke: rgb(0, 102, 153); fill: none;"></path><path class="data" data-index="93" d="M0,0L700,272.7407969611847" style="stroke: rgb(0, 102, 153); fill: none;"></path><path class="data" data-index="94" d="M0,0L700,270.2761205126283" style="stroke: rgb(0, 102, 153); fill: none;"></path><path class="data" data-index="95" d="M0,545L700,277.42625693451856" style="stroke: rgb(0, 102, 153); fill: none;"></path><path class="data" data-index="96" d="M0,545L700,277.6005319485452" style="stroke: rgb(0, 102, 153); fill: none;"></path><path class="data" data-index="97" d="M0,0L700,265.9319810618857" style="stroke: rgb(0, 102, 153); fill: none;"></path><path class="data" data-index="98" d="M0,0L700,268.7541258798573" style="stroke: rgb(0, 102, 153); fill: none;"></path><path class="data" data-index="99" d="M0,0L700,270.4968986025592" style="stroke: rgb(0, 102, 153); fill: none;"></path></g><g class="highlightLayer" transform="translate(50,25)"></g><g class="selectionLayer" transform="translate(50,25)"></g><g class="overlay" transform="translate(50,25)"><g class="axis" transform="translate(0)" fill="none" font-size="10" font-family="sans-serif" text-anchor="end"><path class="domain" stroke="currentColor" d="M-6,545.5H0.5V0.5H-6"></path><g class="tick" opacity="1" transform="translate(0,545.5)"><line stroke="currentColor" x2="-6"></line><text fill="currentColor" x="-9" dy="0.32em">A1</text></g><g class="tick" opacity="1" transform="translate(0,0.5)"><line stroke="currentColor" x2="-6"></line><text fill="currentColor" x="-9" dy="0.32em">A2</text></g><text class="column_label" y="-9" style="text-anchor: middle; fill: black;">Dimension 1</text></g><g class="axis" transform="translate(700)" fill="none" font-size="10" font-family="sans-serif" text-anchor="end"><path class="domain" stroke="currentColor" d="M-6,545.5H0.5V0.5H-6"></path><g class="tick" opacity="1" transform="translate(0,503.2057025504671)"><line stroke="currentColor" x2="-6"></line><text fill="currentColor" x="-9" dy="0.32em">-30</text></g><g class="tick" opacity="1" transform="translate(0,428.7309791456666)"><line stroke="currentColor" x2="-6"></line><text fill="currentColor" x="-9" dy="0.32em">-20</text></g><g class="tick" opacity="1" transform="translate(0,354.2562557408661)"><line stroke="currentColor" x2="-6"></line><text fill="currentColor" x="-9" dy="0.32em">-10</text></g><g class="tick" opacity="1" transform="translate(0,279.78153233606554)"><line stroke="currentColor" x2="-6"></line><text fill="currentColor" x="-9" dy="0.32em">0</text></g><g class="tick" opacity="1" transform="translate(0,205.30680893126504)"><line stroke="currentColor" x2="-6"></line><text fill="currentColor" x="-9" dy="0.32em">10</text></g><g class="tick" opacity="1" transform="translate(0,130.83208552646454)"><line stroke="currentColor" x2="-6"></line><text fill="currentColor" x="-9" dy="0.32em">20</text></g><g class="tick" opacity="1" transform="translate(0,56.35736212166398)"><line stroke="currentColor" x2="-6"></line><text fill="currentColor" x="-9" dy="0.32em">30</text></g><text class="column_label" y="-9" style="text-anchor: middle; fill: black;">Dimension 2</text></g></g><g class="annotations" transform="translate(50,25)"></g></g></svg>