<svg width="800px" height="600px"><g><g class="background" transform="translate(50,25)"><rect x="0" y="0" w="1000" h="1000" style="fill: rgb(109, 142, 186);"></rect></g><g class="foreground" transform="translate(50,25)"><path class="data" data-index="0" d="M0,340.563730937459L175,125.20632747562274L350,178.03905132665324L525,312.87411682859806L700,424.6768023695764" style="stroke: rgb(0, 102, 153); fill: none;"></path><path class="data" data-index="1" d="M0,121.4694412486279L175,91.99561216061454L350,317.00826489891256L525,80.48378683839474L700,123.78276374603166" style="stroke: rgb(0, 102, 153); fill: none;"></path><path class="data" data-index="2" d="M0,531.8638027981272L175,382.0246302658811L350,271.8109511890316L525,226.89353588724697L700,493.30421848758704" style="stroke: rgb(0, 102, 153); fill: none;"></path><path class="data" data-index="3" d="M0,108.09568562248091L175,34.90252502609121L350,412.801090951055L525,393.5824785938645L700,292.6921478691634" style="stroke: rgb(0, 102, 153); fill: none;"></path><path class="data" data-index="4" d="M0,213.3568631224772L175,51.38603536990007L350,29.55064577003418L525,382.02110239237027L700,476.5452539380396" style="stroke: rgb(0, 102, 153); fill: none;"></path><path class="data" data-index="5" d="M0,320.41749384375703L175,330.00824888388416L350,3.6913140750524462L525,336.58886908286695L700,150.84038274610498" style="stroke: rgb(0, 102, 153); fill: none;"></path><path class="data" data-index="6" d="M0,78.97527432931497L175,156.2187510524251L350,268.3585802296642L525,227.69447689689736L700,231.01745645399677" style="stroke: rgb(0, 102, 153); fill: none;"></path><path class="data" data-index="7" d="M0,240.98230049397375L175,94.91340292514877L350,20.363898253909383L525,411.61787257169976L700,190.8213493976773" style="stroke: rgb(0, 102, 153); fill: none;"></path><path class="data" data-index="8" d="M0,102.29815765196156L175,211.15084944489752L350,433.917371305575L525,130.83843579152716L700,492.49956424707983" style="stroke: rgb(0, 102, 153); fill: none;"></path><path class="data" data-index="9" d="M0,302.35656356550527L175,273.44450612135677L350,77.00895658174124L525,84.54966787637795L700,281.4172060293741" style="stroke: rgb(0, 102, 153); fill: none;"></path><path class="data" data-index="10" d="M0,53.01255330081284L175,57.521628445254976L350,151.56455470736813L525,422.9552863933583L700,158.68851078288736" style="stroke: rgb(0, 102, 153); fill: none;"></path><path class="data" data-index="11" d="M0,331.59432848838424L175,74.5634376278017L350,466.9059925553108L525,25.58727095644599L700,306.3681993744515" style="stroke: rgb(0, 102, 153); fill: none;"></path><path class="data" data-index="12" d="M0,498.5219496363326L175,325.7860207120671L350,65.1588386187189L525,295.02659933582976L700,477.94797265009413" style="stroke: rgb(0, 102, 153); fill: none;"></path><path class="data" data-index="13" d="M0,179.5755991646182L175,98.20542386325258L350,497.8646749017083L525,4.276856813927338L700,41.338736058786424" style="stroke: rgb(0, 102, 153); fill: none;"></path><path class="data" data-index="14" d="M0,119.76777706928192L175,509.4771165836479L350,321.9857971174896L525,441.71369769659094L700,160.33042358640523" style="stroke: rgb(0, 102, 153); fill: none;"></path><path class="data" data-index="15" d="M0,541.6236117786895L175,302.78770440939616L350,15.971767719850959L525,33.30884817767668L700,465.9089455523416" style="stroke: rgb(0, 102, 153); fill: none;"></path><path class="data" data-index="16" d="M0,243.4276564711655L175,118.17217406010246L350,474.7943888790693L525,525.6231522265938L700,163.83688544698515" style="stroke: rgb(0, 102, 153); fill: none;"></path><path class="data" data-index="17" d="M0,522.7716630460258L175,176.50592952300593L350,359.22519550473214L525,76.73896883411123L700,225.6954498326108" style="stroke: rgb(0, 102, 153); fill: none;"></path><path class="data" data-index="18" d="M0,149.22187439290906L175,512.496589115749L350,539.6084618217888L525,128.07897540765174L700,354.19386383449717" style="stroke: rgb(0, 102, 153); fill: none;"></path><path class="data" data-index="19" d="M0,331.52957584251266L175,288.8875875099944L350,204.58764193056766L525,512.3163952448604L700,266.84855935833974" style="stroke: rgb(0, 102, 153); fill: none;"></path><path class="data" data-index="20" d="M0,164.99038146594478L175,245.69208837993068L350,473.80586277442586L525,199.65062543034622L700,479.13977333564196" style="stroke: rgb(0, 102, 153); fill: none;"></path><path class="data" data-index="21" d="M0,433.01506754560137L175,437.47015342478807L350,265.3661642805866L525,405.625535143922L700,462.7126923291812" style="stroke: rgb(0, 102, 153); fill: none;"></path><path class="data" data-index="22" d="M0,0L175,195.29787175944955L350,381.7301129554953L525,227.1491817931855L700,78.20089103604107" style="stroke: rgb(0, 102, 153); fill: none;"></path><path class="data" data-index="23" d="M0,112.19711279911724L175,124.27034364623745L350,461.86253342488715L525,234.69346310914017L700,359.1684874522149" style="stroke: rgb(0, 102, 153); fill: none;"></path><path class="data" data-index="24" d="M0,436.2091529495493L175,512.978586389131L350,204.54795169908544L525,173.2196681754029L700,90.3233203719459" style="stroke: rgb(0, 102, 153); fill: none;"></path><path class="data" data-index="25" d="M0,341.312406875805L175,233.86985652042085L350,6.869438185747185L525,465.64206820397266L700,335.1995186463847" style="stroke: rgb(0, 102, 153); fill: none;"></path><path class="data" data-index="26" d="M0,469.8088649950166L175,14.581964519491066L350,407.15009228886674L525,443.11198698797716L700,190.83969316114673" style="stroke: rgb(0, 102, 153); fill: none;"></path><path class="data" data-index="27" d="M0,172.5108834731857L175,130.37587502834782L350,225.23702559749256L525,20.114080516202648L700,432.9794665111466" style="stroke: rgb(0, 102, 153); fill: none;"></path><path class="data" data-index="28" d="M0,24.488744298982965L175,39.56102235524031L350,364.1260365706503L525,419.71762171288225L700,300.74843611186583" style="stroke: rgb(0, 102, 153); fill: none;"></path><path class="data" data-index="29" d="M0,542.304908292622L175,428.62764410834313L350,41.315785964978886L525,231.85327843139015L700,431.733337098648" style="stroke: rgb(0, 102, 153); fill: none;"></path><path class="data" data-index="30" d="M0,36.29650393112496L175,503.66443734287844L350,528.2478035212364L525,333.31778751686306L700,24.84665569339313" style="stroke: rgb(0, 102, 153); fill: none;"></path><path class="data" data-index="31" d="M0,244.37299869899255L175,300.43719721711204L350,170.8631093606341L525,181.4612659583093L700,182.62958210110958" style="stroke: rgb(0, 102, 153); fill: none;"></path><path class="data" data-index="32" d="M0,280.56125526577586L175,475.8627642610222L350,10.441436339007964L525,0L700,545" style="stroke: rgb(0, 102, 153); fill: none;"></path><path class="data" data-index="33" d="M0,111.96564919355438L175,487.40211300527017L350,21.273931126964953L525,466.85929916501806L700,413.45728452749165" style="stroke: rgb(0, 102, 153); fill: none;"></path><path class="data" data-index="34" d="M0,132.1260804167925L175,9.112775030623084L350,146.59032278096998L525,129.0360995897861L700,92.2229898717328" style="stroke: rgb(0, 102, 153); fill: none;"></path><path class="data" data-index="35" d="M0,378.92554317951317L175,62.55592588746663L350,163.44436285043668L525,47.042500889218104L700,117.28320436218053" style="stroke: rgb(0, 102, 153); fill: none;"></path><path class="data" data-index="36" d="M0,253.48375164555063L175,502.8899414798146L350,221.60001014865162L525,22.339989315918388L700,422.7369985965337" style="stroke: rgb(0, 102, 153); fill: none;"></path><path class="data" data-index="37" d="M0,382.21355273390145L175,225.9016775671588L350,5.836999546740117L525,536.1940793243921L700,141.56555385739625" style="stroke: rgb(0, 102, 153); fill: none;"></path><path class="data" data-index="38" d="M0,64.51732964924338L175,134.57845066319805L350,240.13594502333933L525,440.35050812529295L700,534.684126687514" style="stroke: rgb(0, 102, 153); fill: none;"></path><path class="data" data-index="39" d="M0,526.1092204298432L175,322.7510773725523L350,411.56623017550186L525,264.57951588205634L700,54.11434099767888" style="stroke: rgb(0, 102, 153); fill: none;"></path><path class="data" data-index="40" d="M0,545L175,92.69030631850177L350,315.6868952253866L525,81.27096014630604L700,373.2385555009297" style="stroke: rgb(0, 102, 153); fill: none;"></path><path class="data" data-index="41" d="M0,133.2281286065841L175,37.054971754297185L350,285.54388614083695L525,87.96801080186015L700,168.62373111398745" style="stroke: rgb(0, 102, 153); fill: none;"></path><path class="data" data-index="42" d="M0,126.07232484960576L175,329.08405909826286L350,545L525,165.59274359533703L700,247.17396065860294" style="stroke: rgb(0, 102, 153); fill: none;"></path><path class="data" data-index="43" d="M0,361.6390034088474L175,283.0722484924006L350,334.9973507042127L525,65.32440401757015L700,310.9104027008533" style="stroke: rgb(0, 102, 153); fill: none;"></path><path class="data" data-index="44" d="M0,446.8252468895581L175,277.0049881245318L350,217.26377060482764L525,274.1119676893015L700,361.5513690247887" style="stroke: rgb(0, 102, 153); fill: none;"></path><path class="data" data-index="45" d="M0,177.928473528168L175,69.9389124400899L350,224.06859121069363L525,332.16348782077694L700,0" style="stroke: rgb(0, 102, 153); fill: none;"></path><path class="data" data-index="46" d="M0,235.52027490687362L175,328.8192996689894L350,147.34756843294548L525,93.60191640096065L700,314.9995369102361" style="stroke: rgb(0, 102, 153); fill: none;"></path><path class="data" data-index="47" d="M0,141.6453909044086L175,93.06416359526787L350,70.97559537453935L525,380.569210243916L700,493.19305323381826" style="stroke: rgb(0, 102, 153); fill: none;"></path><path class="data" data-index="48" d="M0,246.5711924384886L175,495.04223029032096L350,416.07735750257007L525,545L700,497.17388855549154" style="stroke: rgb(0, 102, 153); fill: none;"></path><path class="data" data-index="49" d="M0,119.057372622623L175,417.98962310473286L350,284.4927948409002L525,198.93460076192724L700,140.31063599968684" style="stroke: rgb(0, 102, 153); fill: none;"></path><path class="data" data-index="50" d="M0,168.6690514669603L175,220.06955848305716L350,66.02382558548072L525,542.7048030644987L700,522.2888222804603" style="stroke: rgb(0, 102, 153); fill: none;"></path><path class="data" data-index="51" d="M0,427.052562804215L175,71.95505239892606L350,339.54120541505347L525,516.423792490461L700,127.01635832022703" style="stroke: rgb(0, 102, 153); fill: none;"></path><path class="data" data-index="52" d="M0,104.5532828317717L175,343.1180156006666L350,526.4049521795484L525,189.05060384963497L700,473.18671743517757" style="stroke: rgb(0, 102, 153); fill: none;"></path><path class="data" data-index="53" d="M0,172.04474450994752L175,13.040622659065548L350,83.37053208671796L525,197.9376177768621L700,262.91668665759835" style="stroke: rgb(0, 102, 153); fill: none;"></path><path class="data" data-index="54" d="M0,147.58814096689844L175,360.09985150682587L350,306.9615530039255L525,77.14384475425976L700,167.20108876722696" style="stroke: rgb(0, 102, 153); fill: none;"></path><path class="data" data-index="55" d="M0,184.58189360222542L175,50.60769186997413L350,229.0241020188197L525,67.45976906084013L700,71.20479984166155" style="stroke: rgb(0, 102, 153); fill: none;"></path><path class="data" data-index="56" d="M0,344.9635586771943L175,266.19710511900666L350,385.92600525777857L525,285.8081370890979L700,237.90982840600708" style="stroke: rgb(0, 102, 153); fill: none;"></path><path class="data" data-index="57" d="M0,527.057268401351L175,63.51620274238633L350,450.96432616428257L525,314.85819527732406L700,15.557950808540795" style="stroke: rgb(0, 102, 153); fill: none;"></path><path class="data" data-index="58" d="M0,370.3365718754763L175,497.3919468073364L350,281.9188881468153L525,107.80448057977907L700,471.7167677811687" style="stroke: rgb(0, 102, 153); fill: none;"></path><path class="data" data-index="59" d="M0,293.9171047359354L175,310.02011172299746L350,501.64381542425815L525,526.5367176681332L700,156.0764213320346" style="stroke: rgb(0, 102, 153); fill: none;"></path><path class="data" data-index="60" d="M0,460.06711867074097L175,522.1675007442014L350,421.63051738946723L525,195.46206122956244L700,289.5829897864841" style="stroke: rgb(0, 102, 153); fill: none;"></path><path class="data" data-index="61" d="M0,153.54344614132947L175,545L350,288.43801377867123L525,513.1652570951372L700,353.9804194371194" style="stroke: rgb(0, 102, 153); fill: none;"></path><path class="data" data-index="62" d="M0,333.52696353535606L175,14.882397760666322L350,166.0548595153383L525,68.3020712700204L700,34.9403230682243" style="stroke: rgb(0, 102, 153); fill: none;"></path><path class="data" data-index="63" d="M0,255.6532355657091L175,124.75427376648287L350,315.04425431743664L525,262.18234588254296L700,401.55616718119944" style="stroke: rgb(0, 102, 153); fill: none;"></path><path class="data" data-index="64" d="M0,69.56531552673135L175,48.90105359434244L350,9.49765162587903L525,64.11453064585908L700,199.4851752729432" style="stroke: rgb(0, 102, 153); fill: none;"></path><path class="data" data-index="65" d="M0,27.65755758782393L175,490.5083233658495L350,362.78618456029216L525,491.38549305665435L700,134.85365685099498" style="stroke: rgb(0, 102, 153); fill: none;"></path><path class="data" data-index="66" d="M0,35.043576937297246L175,243.3691733158322L350,436.94581772695597L525,460.9075680773782L700,326.40914397354743" style="stroke: rgb(0, 102, 153); fill: none;"></path><path class="data" data-index="67" d="M0,73.62396145287391L175,405.793503873918L350,403.1399678038016L525,283.3856909750048L700,197.56672743196316" style="stroke: rgb(0, 102, 153); fill: none;"></path><path class="data" data-index="68" d="M0,38.432786226513656L175,123.74664648715111L350,293.95511138398393L525,159.5516489547545L700,392.2846825670114" style="stroke: rgb(0, 102, 153); fill: none;"></path><path class="data" data-index="69" d="M0,522.8621686396465L175,475.950693401237L350,107.16800147099048L525,531.7523668837324L700,457.91663485122376" style="stroke: rgb(0, 102, 153); fill: none;"></path><path class="data" data-index="70" d="M0,422.2428617659592L175,370.7404731639551L350,298.6888540122594L525,485.46441804792926L700,101.75305333531145" style="stroke: rgb(0, 102, 153); fill: none;"></path><path class="data" data-index="71" d="M0,49.400107377397774L175,27.796493235878984L350,1.5785675332498386L525,273.06463953196493L700,284.8003265825694" style="stroke: rgb(0, 102, 153); fill: none;"></path><path class="data" data-index="72" d="M0,171.58376229228145L175,369.85343590551065L350,399.6998588445704L525,421.5665884084183L700,515.8285370464589" style="stroke: rgb(0, 102, 153); fill: none;"></path><path class="data" data-index="73" d="M0,514.2207054510039L175,536.809091151899L350,516.2890919255062L525,81.50965245228457L700,133.9178027079722" style="stroke: rgb(0, 102, 153); fill: none;"></path><path class="data" data-index="74" d="M0,404.5087418409054L175,253.8551746233877L350,310.28008884505425L525,91.60620249045178L700,221.51801263204038" style="stroke: rgb(0, 102, 153); fill: none;"></path><path class="data" data-index="75" d="M0,18.170443358240618L175,404.7532142462078L350,525.170206281365L525,428.7012291539691L700,514.4075145184281" style="stroke: rgb(0, 102, 153); fill: none;"></path><path class="data" data-index="76" d="M0,260.41331958718706L175,0L350,387.5549439211312L525,305.6786397232057L700,33.7028582476085" style="stroke: rgb(0, 102, 153); fill: none;"></path><path class="data" data-index="77" d="M0,1.7661385747046552L175,177.78313471657293L350,213.12695921529019L525,230.70880554858638L700,313.3873832482741" style="stroke: rgb(0, 102, 153); fill: none;"></path><path class="data" data-index="78" d="M0,482.20175407214276L175,258.0407776441791L350,323.1707474280304L525,540.7964122093899L700,170.0640550882767" style="stroke: rgb(0, 102, 153); fill: none;"></path><path class="data" data-index="79" d="M0,67.86759710788772L175,63.72544460623459L350,0L525,396.1530273200591L700,446.4333476954562" style="stroke: rgb(0, 102, 153); fill: none;"></path><path class="data" data-index="80" d="M0,318.676775941408L175,62.64985198079472L350,55.0508041297154L525,390.3536446881103L700,130.05616475823626" style="stroke: rgb(0, 102, 153); fill: none;"></path><path class="data" data-index="81" d="M0,486.5385080061418L175,463.05327530006923L350,350.1826965502866L525,126.06616528440293L700,424.20236982343744" style="stroke: rgb(0, 102, 153); fill: none;"></path><path class="data" data-index="82" d="M0,509.6415226779645L175,457.3073833431464L350,4.528122346567784L525,441.33262098767807L700,237.97408459223493" style="stroke: rgb(0, 102, 153); fill: none;"></path><path class="data" data-index="83" d="M0,51.38093899701198L175,104.40633737158942L350,24.455313763527784L525,514.1030395070843L700,428.3573934289321" style="stroke: rgb(0, 102, 153); fill: none;"></path><path class="data" data-index="84" d="M0,77.55402365314183L175,89.65972515009281L350,260.0474267181086L525,208.36315411225553L700,252.48838134130062" style="stroke: rgb(0, 102, 153); fill: none;"></path><path class="data" data-index="85" d="M0,408.63031976333457L175,40.76182526589963L350,15.300791557010143L525,483.31826358919255L700,490.2080814048983" style="stroke: rgb(0, 102, 153); fill: none;"></path><path class="data" data-index="86" d="M0,405.27208237045363L175,449.7767708555906L350,465.42593899992846L525,497.0100469179986L700,505.66512802238634" style="stroke: rgb(0, 102, 153); fill: none;"></path><path class="data" data-index="87" d="M0,339.95239354222883L175,157.37982209541445L350,41.378752151953336L525,457.4590624536874L700,514.7132456082028" style="stroke: rgb(0, 102, 153); fill: none;"></path><path class="data" data-index="88" d="M0,424.6301595260447L175,397.4867146246886L350,175.28515202796012L525,254.00092692472447L700,405.3504530705151" style="stroke: rgb(0, 102, 153); fill: none;"></path><path class="data" data-index="89" d="M0,170.26719519365264L175,243.42272071434223L350,409.5130062948605L525,418.57483448677544L700,344.25146269473424" style="stroke: rgb(0, 102, 153); fill: none;"></path><path class="data" data-index="90" d="M0,453.5778945268423L175,267.86921890997723L350,453.27704926382705L525,418.415683958358L700,483.27482683190993" style="stroke: rgb(0, 102, 153); fill: none;"></path><path class="data" data-index="91" d="M0,168.8769456735747L175,214.2033587980024L350,482.70227106949613L525,144.94892778086069L700,20.53905251754088" style="stroke: rgb(0, 102, 153); fill: none;"></path><path class="data" data-index="92" d="M0,144.05544173002397L175,384.3171265963239L350,397.7693795664361L525,439.5950269982447L700,249.91109560060346" style="stroke: rgb(0, 102, 153); fill: none;"></path><path class="data" data-index="93" d="M0,358.86074337282764L175,481.04109431944556L350,399.59667236967437L525,8.331039647549233L700,34.96970349650968" style="stroke: rgb(0, 102, 153); fill: none;"></path><path class="data" data-index="94" d="M0,195.46696935641853L175,410.7694814637007L350,397.74882962159546L525,294.05849853188477L700,304.9460088234259" style="stroke: rgb(0, 102, 153); fill: none;"></path><path class="data" data-index="95" d="M0,150.55486985269033L175,292.6798032348657L350,74.29646605544502L525,489.1300555583582L700,15.004603007509331" style="stroke: rgb(0, 102, 153); fill: none;"></path><path class="data" data-index="96" d="M0,33.006019282989655L175,325.30479368119234L350,221.07435154091218L525,129.101355194093L700,437.7339406759141" style="stroke: rgb(0, 102, 153); fill: none;"></path><path class="data" data-index="97" d="M0,24.62973924247092L175,306.5486292555953L350,279.5661444182816L525,211.56982891421399L700,53.06837612698018" style="stroke: rgb(0, 102, 153); fill: none;"></path><path class="data" data-index="98" d="M0,7.266989522458971L175,91.10627589937377L350,81.52101915835101L525,85.4577300415956L700,7.181749941713406" style="stroke: rgb(0, 102, 153); fill: none;"></path><path class="data" data-index="99" d="M0,19.939142021580324L175,293.08436095132765L350,251.54421080598576L525,312.6856258890589L700,95.89185684510875" style="stroke: rgb(0, 102, 153); fill: none;"></path></g><g class="highlightLayer" transform="translate(50,25)"></g><g class="selectionLayer" transform="translate(50,25)"></g><g class="overlay" transform="translate(50,25)"><g class="axis" transform="translate(0)" fill="none" font-size="10" font-family="sans-serif" text-anchor="end"><path class="domain" stroke="currentColor" d="M-6,545.5H0.5V0.5H-6"></path><g class="tick" opacity="1" transform="translate(0,503.5293868707809)"><line stroke="currentColor" x2="-6"></line><text fill="currentColor" x="-9" dy="0.32em">0.1</text></g><g class="tick" opacity="1" transform="translate(0,445.3922648217484)"><line stroke="currentColor" x2="-6"></line><text fill="currentColor" x="-9" dy="0.32em">0.2</text></g><g class="tick" opacity="1" transform="translate(0,387.25514277271594)"><line stroke="currentColor" x2="-6"></line><text fill="currentColor" x="-9" dy="0.32em">0.3</text></g><g class="tick" opacity="1" transform="translate(0,329.11802072368346)"><line stroke="currentColor" x2="-6"></line><text fill="currentColor" x="-9" dy="0.32em">0.4</text></g><g class="tick" opacity="1" transform="translate(0,270.980898674651)"><line stroke="currentColor" x2="-6"></line><text fill="currentColor" x="-9" dy="0.32em">0.5</text></g><g class="tick" opacity="1" transform="translate(0,212.8437766256185)"><line stroke="currentColor" x2="-6"></line><text fill="currentColor" x="-9" dy="0.32em">0.6</text></g><g class="tick" opacity="1" transform="translate(0,154.706654576586)"><line stroke="currentColor" x2="-6"></line><text fill="currentColor" x="-9" dy="0.32em">0.7</text></g><g class="tick" opacity="1" transform="translate(0,96.56953252755346)"><line stroke="currentColor" x2="-6"></line><text fill="currentColor" x="-9" dy="0.32em">0.8</text></g><g class="tick" opacity="1" transform="translate(0,38.43241047852098)"><line stroke="currentColor" x2="-6"></line><text fill="currentColor" x="-9" dy="0.32em">0.9</text></g><text class="column_label" y="-9" style="text-anchor: middle; fill: black;">Dimension 1</text></g><g class="axis" transform="translate(175)" fill="none" font-size="10" font-family="sans-serif" text-anchor="end"><path class="domain" stroke="currentColor" d="M-6,545.5H0.5V0.5H-6"></path><g class="tick" opacity="1" transform="translate(0,492.7757371653485)"><line stroke="currentColor" x2="-6"></line><text fill="currentColor" x="-9" dy="0.32em">0.1</text></g><g class="tick" opacity="1" transform="translate(0,437.8236684170808)"><line stroke="currentColor" x2="-6"></line><text fill="currentColor" x="-9" dy="0.32em">0.2</text></g><g class="tick" opacity="1" transform="translate(0,382.87159966881313)"><line stroke="currentColor" x2="-6"></line><text fill="currentColor" x="-9" dy="0.32em">0.3</text></g><g class="tick" opacity="1" transform="translate(0,327.9195309205454)"><line stroke="currentColor" x2="-6"></line><text fill="currentColor" x="-9" dy="0.32em">0.4</text></g><g class="tick" opacity="1" transform="translate(0,272.96746217227775)"><line stroke="currentColor" x2="-6"></line><text fill="currentColor" x="-9" dy="0.32em">0.5</text></g><g class="tick" opacity="1" transform="translate(0,218.01539342401009)"><line stroke="currentColor" x2="-6"></line><text fill="currentColor" x="-9" dy="0.32em">0.6</text></g><g class="tick" opacity="1" transform="translate(0,163.06332467574242)"><line stroke="currentColor" x2="-6"></line><text fill="currentColor" x="-9" dy="0.32em">0.7</text></g><g class="tick" opacity="1" transform="translate(0,108.11125592747464)"><line stroke="currentColor" x2="-6"></line><text fill="currentColor" x="-9" dy="0.32em">0.8</text></g><g class="tick" opacity="1" transform="translate(0,53.15918717920704)"><line stroke="currentColor" x2="-6"></line><text fill="currentColor" x="-9" dy="0.32em">0.9</text></g><text class="column_label" y="-9" style="text-anchor: middle; fill: black;">Dimension 2</text></g><g class="axis" transform="translate(350)" fill="none" font-size="10" font-family="sans-serif" text-anchor="end"><path class="domain" stroke="currentColor" d="M-6,545.5H0.5V0.5H-6"></path><g class="tick" opacity="1" transform="translate(0,497.5945963318232)"><line stroke="currentColor" x2="-6"></line><text fill="currentColor" x="-9" dy="0.32em">0.1</text></g><g class="tick" opacity="1" transform="translate(0,442.17761770275854)"><line stroke="currentColor" x2="-6"></line><text fill="currentColor" x="-9" dy="0.32em">0.2</text></g><g class="tick" opacity="1" transform="translate(0,386.76063907369394)"><line stroke="currentColor" x2="-6"></line><text fill="currentColor" x="-9" dy="0.32em">0.3</text></g><g class="tick" opacity="1" transform="translate(0,331.34366044462934)"><line stroke="currentColor" x2="-6"></line><text fill="currentColor" x="-9" dy="0.32em">0.4</text></g><g class="tick" opacity="1" transform="translate(0,275.92668181556473)"><line stroke="currentColor" x2="-6"></line><text fill="currentColor" x="-9" dy="0.32em">0.5</text></g><g class="tick" opacity="1" transform="translate(0,220.50970318650013)"><line stroke="currentColor" x2="-6"></line><text fill="currentColor" x="-9" dy="0.32em">0.6</text></g><g class="tick" opacity="1" transform="translate(0,165.09272455743553)"><line stroke="currentColor" x2="-6"></line><text fill="currentColor" x="-9" dy="0.32em">0.7</text></g><g class="tick" opacity="1" transform="translate(0,109.67574592837082)"><line stroke="currentColor" x2="-6"></line><text fill="currentColor" x="-9" dy="0.32em">0.8</text></g><g class="tick" opacity="1" transform="translate(0,54.258767299306214)"><line stroke="currentColor" x2="-6"></line><text fill="currentColor" x="-9" dy="0.32em">0.9</text></g><text class="column_label" y="-9" style="text-anchor: middle; fill: black;">Dimension 3</text></g><g class="axis" transform="translate(525)" fill="none" font-size="10" font-family="sans-serif" text-anchor="end"><path class="domain" stroke="currentColor" d="M-6,545.5H0.5V0.5H-6"></path><g class="tick" opacity="1" transform="translate(0,530.8000332666236)"><line stroke="currentColor" x2="-6"></line><text fill="currentColor" x="-9" dy="0.32em">0.1</text></g><g class="tick" opacity="1" transform="translate(0,471.53771583074763)"><line stroke="currentColor" x2="-6"></line><text fill="currentColor" x="-9" dy="0.32em">0.2</text></g><g class="tick" opacity="1" transform="translate(0,412.27539839487173)"><line stroke="currentColor" x2="-6"></line><text fill="currentColor" x="-9" dy="0.32em">0.3</text></g><g class="tick" opacity="1" transform="translate(0,353.01308095899583)"><line stroke="currentColor" x2="-6"></line><text fill="currentColor" x="-9" dy="0.32em">0.4</text></g><g class="tick" opacity="1" transform="translate(0,293.75076352311993)"><line stroke="currentColor" x2="-6"></line><text fill="currentColor" x="-9" dy="0.32em">0.5</text></g><g class="tick" opacity="1" transform="translate(0,234.48844608724403)"><line stroke="currentColor" x2="-6"></line><text fill="currentColor" x="-9" dy="0.32em">0.6</text></g><g class="tick" opacity="1" transform="translate(0,175.22612865136813)"><line stroke="currentColor" x2="-6"></line><text fill="currentColor" x="-9" dy="0.32em">0.7</text></g><g class="tick" opacity="1" transform="translate(0,115.96381121549217)"><line stroke="currentColor" x2="-6"></line><text fill="currentColor" x="-9" dy="0.32em">0.8</text></g><g class="tick" opacity="1" transform="translate(0,56.70149377961633)"><line stroke="currentColor" x2="-6"></line><text fill="currentColor" x="-9" dy="0.32em">0.9</text></g><text class="column_label" y="-9" style="text-anchor: middle; fill: black;">Dimension 4</text></g><g class="axis" transform="translate(700)" fill="none" font-size="10" font-family="sans-serif" text-anchor="end"><path class="domain" stroke="currentColor" d="M-6,545.5H0.5V0.5H-6"></path><g class="tick" opacity="1" transform="translate(0,496.33665935575925)"><line stroke="currentColor" x2="-6"></line><text fill="currentColor" x="-9" dy="0.32em">0.1</text></g><g class="tick" opacity="1" transform="translate(0,441.07968257795346)"><line stroke="currentColor" x2="-6"></line><text fill="currentColor" x="-9" dy="0.32em">0.2</text></g><g class="tick" opacity="1" transform="translate(0,385.8227058001477)"><line stroke="currentColor" x2="-6"></line><text fill="currentColor" x="-9" dy="0.32em">0.3</text></g><g class="tick" opacity="1" transform="translate(0,330.5657290223418)"><line stroke="currentColor" x2="-6"></line><text fill="currentColor" x="-9" dy="0.32em">0.4</text></g><g class="tick" opacity="1" transform="translate(0,275.30875224453604)"><line stroke="currentColor" x2="-6"></line><text fill="currentColor" x="-9" dy="0.32em">0.5</text></g><g class="tick" opacity="1" transform="translate(0,220.05177546673025)"><line stroke="currentColor" x2="-6"></line><text fill="currentColor" x="-9" dy="0.32em">0.6</text></g><g class="tick" opacity="1" transform="translate(0,164.79479868892446)"><line stroke="currentColor" x2="-6"></line><text fill="currentColor" x="-9" dy="0.32em">0.7</text></g><g class="tick" opacity="1" transform="translate(0,109.53782191111861)"><line stroke="currentColor" x2="-6"></line><text fill="currentColor" x="-9" dy="0.32em">0.8</text></g><g class="tick" opacity="1" transform="translate(0,54.280845133312766)"><line stroke="currentColor" x2="-6"></line><text fill="currentColor" x="-9" dy="0.32em">0.9</text></g><text class="column_label" y="-9" style="text-anchor: middle; fill: black;">Dimension 5</text></g></g><g class="annotations" transform="translate(50,25)"></g></g></svg>